<svg width="6" height="9" viewBox="0 0 6 9" fill="none" xmlns="http://www.w3.org/2000/svg">
<path d="M1.61926 0.154907C1.5323 0.154935 1.43615 0.1686 1.35168 0.203735C1.30969 0.221216 1.26999 0.243652 1.23254 0.269165L1.12708 0.352173L1.12512 0.354126C1.06241 0.416741 1.01577 0.498159 0.982544 0.576782L0.9552 0.642212C0.933272 0.708543 0.925938 0.777371 0.925903 0.84729C0.925903 0.937797 0.946631 1.02764 0.980591 1.10901C1.01562 1.19289 1.07102 1.26786 1.13782 1.33459L4.21594 4.40686L3.66418 4.95178L1.13782 7.4801L1.13684 7.48108C1.01389 7.61064 0.944939 7.78229 0.951294 7.96155L0.963989 8.09241C0.989556 8.22077 1.05274 8.33856 1.15051 8.43616C1.27414 8.55952 1.44632 8.63538 1.6261 8.63538C1.80308 8.63532 1.97524 8.57403 2.10657 8.44983L2.10754 8.44885L5.67395 4.88831C5.73646 4.82578 5.78456 4.74986 5.81848 4.66858C5.85234 4.58734 5.87315 4.49818 5.87317 4.40784C5.87317 4.31719 5.85178 4.22766 5.81848 4.14124L5.81848 4.14026C5.78454 4.05893 5.73652 3.98308 5.67395 3.92053L2.10754 0.360962C2.04671 0.300236 1.97152 0.244478 1.88782 0.209595H1.88586C1.79931 0.17636 1.71002 0.154907 1.61926 0.154907Z" fill="#181725" stroke="#181725" stroke-width="0.115056"/>
</svg>
