<svg width="52" height="52" viewBox="0 0 52 52" fill="none" xmlns="http://www.w3.org/2000/svg">
<g clip-path="url(#clip0_309_1963)">
<path d="M41.1663 21.2065L24.288 4.32812H10.833V17.7831L27.7113 34.6615L41.1663 21.2065ZM15.708 11.9115C14.9897 11.9115 14.3008 11.6261 13.7929 11.1182C13.285 10.6103 12.9997 9.92142 12.9997 9.20312C12.9997 8.48483 13.285 7.79596 13.7929 7.28804C14.3008 6.78013 14.9897 6.49479 15.708 6.49479C16.4263 6.49479 17.1152 6.78013 17.6231 7.28804C18.131 7.79596 18.4163 8.48483 18.4163 9.20312C18.4163 9.92142 18.131 10.6103 17.6231 11.1182C17.1152 11.6261 16.4263 11.9115 15.708 11.9115Z" fill="#94D9D9"/>
<path d="M27.7117 45.5007L6.5 24.2891V28.6224C6.5 29.7707 6.955 30.8757 7.77833 31.6774L24.6567 48.5557C26.3467 50.2457 29.0983 50.2457 30.7883 48.5557L44.2433 35.1007C45.9333 33.4107 45.9333 30.6591 44.2433 28.9691L27.7117 45.5007Z" fill="#11AEAE" stroke="white" stroke-width="1.8"/>
<path d="M24.6567 37.7217C25.5017 38.5667 26.6067 39 27.7117 39C28.8167 39 29.9217 38.5667 30.7667 37.7217L44.2217 24.2667C45.9117 22.5767 45.9117 19.825 44.2217 18.135L27.3433 1.25667C26.5417 0.455 25.4367 0 24.2883 0H10.8333C8.45 0 6.5 1.95 6.5 4.33333V17.7883C6.5 18.9367 6.955 20.0417 7.77833 20.8433L24.6567 37.7217ZM10.8333 4.33333H24.2883L41.1667 21.2117L27.7117 34.6667L10.8333 17.7883V4.33333Z" fill="#11AEAE" stroke="white" stroke-width="1.8"/>
<path d="M15.7083 11.9167C17.2041 11.9167 18.4167 10.7041 18.4167 9.20833C18.4167 7.71256 17.2041 6.5 15.7083 6.5C14.2126 6.5 13 7.71256 13 9.20833C13 10.7041 14.2126 11.9167 15.7083 11.9167Z" fill="#11AEAE"/>
</g>
<defs>
<clipPath id="clip0_309_1963">
<rect width="52" height="52" fill="white"/>
</clipPath>
</defs>
</svg>
