<svg width="52" height="52" viewBox="0 0 52 52" fill="none" xmlns="http://www.w3.org/2000/svg">
<path d="M30.3443 8.66406H21.656C13.466 8.66406 9.37101 8.66406 6.82517 11.2034C5.07017 12.9497 4.52634 15.4306 4.35517 19.4736C4.32267 20.2752 4.30534 20.6782 4.45484 20.9447C4.60651 21.2112 5.20234 21.5471 6.39834 22.2144C7.07203 22.59 7.63321 23.1386 8.02387 23.8037C8.41453 24.4688 8.6205 25.2261 8.6205 25.9974C8.6205 26.7687 8.41453 27.526 8.02387 28.1911C7.63321 28.8561 7.07203 29.4048 6.39834 29.7804C5.20234 30.4499 4.60434 30.7836 4.45484 31.0501C4.30534 31.3166 4.32267 31.7174 4.35734 32.5191C4.52634 36.5642 5.07234 39.0451 6.82517 40.7914C9.36884 43.3307 13.4638 43.3307 21.656 43.3307H30.3443C38.5343 43.3307 42.6293 43.3307 45.1752 40.7914C46.9302 39.0451 47.474 36.5642 47.6452 32.5212C47.6777 31.7196 47.695 31.3166 47.5455 31.0501C47.3938 30.7836 46.798 30.4499 45.602 29.7804C44.9283 29.4048 44.3671 28.8561 43.9765 28.1911C43.5858 27.526 43.3799 26.7687 43.3799 25.9974C43.3799 25.2261 43.5858 24.4688 43.9765 23.8037C44.3671 23.1386 44.9283 22.59 45.602 22.2144C46.798 21.5471 47.396 21.2112 47.5455 20.9447C47.695 20.6782 47.6777 20.2774 47.643 19.4736C47.474 15.4306 46.928 12.9519 45.1752 11.2034C42.6315 8.66406 38.5365 8.66406 30.3443 8.66406Z" stroke="#94D9D9" stroke-width="3.25"/>
<path d="M19.5 32.5L32.5 19.5" stroke="#11AEAE" stroke-width="3.25" stroke-linecap="round"/>
<path d="M33.5837 31.4141C33.5837 31.9887 33.3554 32.5398 32.9491 32.9461C32.5427 33.3525 31.9916 33.5807 31.417 33.5807C30.8424 33.5807 30.2913 33.3525 29.8849 32.9461C29.4786 32.5398 29.2503 31.9887 29.2503 31.4141C29.2503 30.8394 29.4786 30.2883 29.8849 29.882C30.2913 29.4757 30.8424 29.2474 31.417 29.2474C31.9916 29.2474 32.5427 29.4757 32.9491 29.882C33.3554 30.2883 33.5837 30.8394 33.5837 31.4141ZM22.7503 20.5807C22.7503 21.1554 22.5221 21.7065 22.1157 22.1128C21.7094 22.5191 21.1583 22.7474 20.5837 22.7474C20.009 22.7474 19.4579 22.5191 19.0516 22.1128C18.6453 21.7065 18.417 21.1554 18.417 20.5807C18.417 20.0061 18.6453 19.455 19.0516 19.0487C19.4579 18.6423 20.009 18.4141 20.5837 18.4141C21.1583 18.4141 21.7094 18.6423 22.1157 19.0487C22.5221 19.455 22.7503 20.0061 22.7503 20.5807Z" fill="#11AEAE"/>
</svg>
