<svg width="52" height="52" viewBox="0 0 52 52" fill="none" xmlns="http://www.w3.org/2000/svg">
<path d="M44.9758 18.4136L49.3114 10.8238L30.8795 2.1506L25.4585 9.74044L21.1208 2.14844L1.60352 10.8238L5.94118 18.4136L1.60352 26.0034L5.94118 27.9318V41.1831L25.4585 49.8563L44.9758 41.1831V27.6306L50.3969 24.9201L44.9758 18.4136Z" fill="white"/>
<path d="M30.8797 34.6784L25.4587 27.0885V49.8602L44.9739 41.1849V27.6324L30.8797 34.6784ZM5.94141 18.4154L25.4587 9.74219L44.9739 18.4154L25.4587 27.0885L5.94141 18.4154Z" fill="#94D9D9"/>
<path d="M44.9758 27.6263V41.1809L25.4585 49.8541M25.4585 49.8541L5.94118 41.1809V27.9296M25.4585 49.8541V27.0846M5.94118 18.4114L1.60352 10.8216L21.1209 2.14844L25.4585 9.73827L30.8795 2.14844L49.3114 10.8216L44.9758 18.4114" stroke="#11AEAE" stroke-width="2.16667" stroke-linecap="round" stroke-linejoin="round"/>
<path d="M5.94118 18.4141L1.60352 26.0039L21.1209 34.6771L25.4585 27.0872L30.8795 34.6771L50.3969 24.9206L44.9737 18.4141" stroke="#11AEAE" stroke-width="2.16667" stroke-linecap="round" stroke-linejoin="round"/>
<path d="M44.9761 18.4154L25.4587 27.0885L5.94141 18.4154M44.9761 18.4154L25.4587 9.74219L5.94141 18.4154" stroke="#11AEAE" stroke-width="2.16667" stroke-linecap="round" stroke-linejoin="round"/>
</svg>
