<svg width="52" height="52" viewBox="0 0 52 52" fill="none" xmlns="http://www.w3.org/2000/svg">
<path d="M50.3729 14.9207L32.6474 7.16406L14.9219 14.9207V37.0771L32.6452 44.8337L50.3729 37.0771V14.9207Z" fill="white"/>
<path d="M41.2724 10.9375L23.5469 18.692L32.6469 22.6722V44.8285L50.3702 37.074V14.9177L41.2724 10.9375Z" fill="#94D9D9"/>
<path d="M23.7833 11.0391L41.5088 18.8629V25.9956M1.62695 28.5479L1.73095 28.5977L10.4908 32.6429M3.19129 21.5149L10.4908 24.8884M4.65162 14.4364L10.4908 17.1339M32.6471 22.6719V44.8282" stroke="#11AEAE" stroke-width="2.16667" stroke-linecap="round" stroke-linejoin="round"/>
<path d="M14.9219 14.9219V37.0782L32.6452 44.8349L50.3729 37.0782V14.9219" stroke="#11AEAE" stroke-width="2.16667" stroke-linecap="round" stroke-linejoin="round"/>
<path d="M14.9219 14.9219L32.6452 22.6785L50.3729 14.9219" stroke="#11AEAE" stroke-width="2.16667" stroke-linecap="round" stroke-linejoin="round"/>
<path d="M14.9219 14.9207L32.6452 7.16406L50.3729 14.9207" stroke="#11AEAE" stroke-width="2.16667" stroke-linecap="round" stroke-linejoin="round"/>
</svg>
